<?xml version="1.0" encoding="utf-8"?>
<!-- Generator: Adobe Illustrator 26.0.1, SVG Export Plug-In . SVG Version: 6.00 Build 0)  -->
<svg version="1.1" id="Livello_1" xmlns="http://www.w3.org/2000/svg" xmlns:xlink="http://www.w3.org/1999/xlink" x="0px" y="0px"
	 viewBox="0 0 1920 502.69" style="enable-background:new 0 0 1920 502.69;" xml:space="preserve">
<style type="text/css">
	.st0{fill:#FFFFFF;}
</style>
<path class="st0" d="M259.96,488.37C111.09,488.31,11.63,382.82,11.63,254.93c0-127.91,99.69-234.61,248.09-234.29h1402.34
	c148.4-0.33,248.09,106.38,248.09,234.29c0,127.89-99.46,233.38-248.33,233.44H259.96z M260.4,78.18
	C142.55,78.41,70.23,157.17,70.23,254.62c0,97.42,71.88,176.83,190.17,176.41h1401c118.29,0.41,190.19-78.99,190.19-176.41
	c0-97.41-72.33-176.19-190.17-176.4L260.4,78.18z M1736.75,160.43c10.72,0,16.03,3.63,16.03,10.81c0,4.94-3.07,8.67-8.19,9.95
	l8.4,16.78h-10.16l-7.18-15.39h-4.46v15.39h-9.16v-37.54H1736.75z M1735.92,145.76c-18.71,0-33.9,15.18-33.9,33.87
	c0,18.72,15.18,33.9,33.9,33.9c18.71,0,33.87-15.18,33.87-33.9C1769.79,160.93,1754.63,145.76,1735.92,145.76L1735.92,145.76z
	 M1763.33,179.67c0,15.12-12.29,27.41-27.41,27.41c-15.12,0-27.41-12.28-27.41-27.41c0-15.14,12.28-27.41,27.41-27.41
	C1751.04,152.26,1763.33,164.51,1763.33,179.67L1763.33,179.67z M1731.19,177.1h4.46c5.22,0,7.73-1.6,7.73-5.33
	c0-3.9-2.68-5.6-8.19-5.6h-3.99V177.1z M965.33,268.83c-0.09-12.82,0.18-21.4,4.39-28.72c5.18-9.02,14.68-13.31,23.29-13.36h-0.02
	c8.61,0.05,18.12,4.35,23.29,13.36c4.21,7.34,4.39,15.91,4.29,28.73L965.33,268.83z M1020.34,312.98c0,0,0.06,0.66,0.06,8.88
	c0,26.77-17.63,32.71-27.41,32.71c-9.79,0-27.71-5.95-27.71-32.71c0-8.03,0.05-30.24,0.05-30.24s124.72,0.06,124.72-0.02
	c0-45.41-43.84-83.03-97.71-83.03c-53.84,0-97.49,36.81-97.49,82.22c0,45.4,43.65,82.2,97.49,82.2c44.67,0,82.43-25.49,93.94-60.07
	L1020.34,312.98z M1228.67,211.03c24.76-0.72,74.99,15.51,74.63,73.46c-0.04,10.28-0.02,79.67-0.02,79.67h-65.78
	c0,0,0-87.01,0-96.16c0-12.75-12.2-26.94-30.24-26.94c-18.04,0-31.44,14.19-31.44,26.94c0,6.26,0.07,96.16,0.07,96.16h-65.74
	l0.05-146.41l65.7-0.03c0,0-0.07,11.76,0,15.39C1188.56,221.03,1206.8,211.65,1228.67,211.03L1228.67,211.03z M690.59,211.03
	c24.76-0.72,74.99,15.51,74.63,73.46c-0.04,10.28-0.02,79.67-0.02,79.67h-65.78c0,0,0-87.01,0-96.16c0-12.75-12.2-26.94-30.26-26.94
	c-18.02,0-31.42,14.19-31.42,26.94c0,6.26,0.05,96.16,0.05,96.16h-65.72l-0.01-146.41l65.78-0.03c0,0-0.07,11.76,0,15.39
	C650.48,221.03,668.71,211.65,690.59,211.03L690.59,211.03z M1445.99,144.03h65.36v220.19h-65.45c0,0-0.02-7.1-0.02-8.47
	c-25.34,15.91-53.94,15.89-76.19,5.5c-5.99-2.78-45.29-21.63-45.29-72.6c0-38.64,36.46-80.84,84.19-76.67
	c15.7,1.39,26.88,7.11,37.47,13.08C1445.99,191.16,1445.99,144.03,1445.99,144.03L1445.99,144.03z M1446.48,290.27
	c0,0,0-18.36,0-26.17c0-22.65-15.62-28.43-25.92-28.43c-10.53,0-25.96,5.77-25.96,28.43c0,7.52,0.02,26.1,0.02,26.1
	s-0.02,18.25-0.02,26.03c0,22.62,15.43,28.55,25.94,28.55c10.31,0,25.98-5.93,25.98-28.55
	C1446.52,306.84,1446.48,290.27,1446.48,290.27L1446.48,290.27z M1656.27,289.85c0,0-0.01,22.13-0.01,31
	c0,23.35-13.79,32.99-27.06,32.99c-13.29,0-27.13-9.64-27.13-32.99c0-8.86,0.03-31.56,0.03-31.56s0.04-21.65,0.04-30.53
	c0-23.25,13.87-32.79,27.06-32.79c13.21,0,27.06,9.54,27.06,32.79c0,8.88-0.04,25.28,0.03,31.17L1656.27,289.85z M1629.68,207.81
	c-53.46,0-96.78,36.81-96.78,82.22c0,45.4,43.34,82.21,96.78,82.21c53.44,0,96.76-36.81,96.76-82.21
	C1726.44,244.62,1683.12,207.81,1629.68,207.81L1629.68,207.81z M469.23,189v-45h66.36v45H469.23z M469.38,364.22V217.79l66.21,0.02
	v146.41H469.38z M801.55,364.22l0.03-146.14h-36v-21.73l36.02-0.02l-0.04-29.66h66.25v29.63h35.86v21.78h-35.86l0.06,146.14H801.55z
	 M199.95,364.22l0.02-220.19h68.6l94.9,153.54l-0.06-153.54h68.08v220.19h-67.98L268.1,210.67v153.55H199.95z M199.95,364.22"/>
</svg>
